<svg xmlns="http://www.w3.org/2000/svg" xmlns:xlink="http://www.w3.org/1999/xlink" width="500" zoomAndPan="magnify" viewBox="0 0 375 374.999991" height="500" preserveAspectRatio="xMidYMid meet" version="1.0"><defs><g/><clipPath id="aa131e8768"><path d="M 114.339844 70.65625 L 246.339844 70.65625 L 246.339844 240.90625 L 114.339844 240.90625 Z M 114.339844 70.65625 " clip-rule="nonzero"/></clipPath></defs><rect x="-37.5" width="450" fill="#ffffff" y="-37.499999" height="449.999989" fill-opacity="1"/><rect x="-37.5" width="450" fill="#ffffff" y="-37.499999" height="449.999989" fill-opacity="1"/><g fill="#ffffff" fill-opacity="1"><g transform="translate(35.830224, 294.750441)"><g><path d="M 44.375 -27.21875 L 35.46875 0 L 28.703125 0 L 22.71875 -18.4375 L 16.53125 0 L 9.796875 0 L 0.859375 -27.21875 L 7.390625 -27.21875 L 13.53125 -8.09375 L 19.953125 -27.21875 L 25.78125 -27.21875 L 32 -7.9375 L 38.34375 -27.21875 Z M 44.375 -27.21875 "/></g></g></g><g fill="#ffffff" fill-opacity="1"><g transform="translate(81.669732, 294.750441)"><g><path d="M 2.796875 -20.921875 L 8.859375 -20.921875 L 8.859375 0 L 2.796875 0 Z M 5.828125 -23.84375 C 4.710938 -23.84375 3.804688 -24.164062 3.109375 -24.8125 C 2.410156 -25.457031 2.0625 -26.257812 2.0625 -27.21875 C 2.0625 -28.175781 2.410156 -28.976562 3.109375 -29.625 C 3.804688 -30.28125 4.710938 -30.609375 5.828125 -30.609375 C 6.941406 -30.609375 7.847656 -30.296875 8.546875 -29.671875 C 9.253906 -29.046875 9.609375 -28.269531 9.609375 -27.34375 C 9.609375 -26.332031 9.253906 -25.492188 8.546875 -24.828125 C 7.847656 -24.171875 6.941406 -23.84375 5.828125 -23.84375 Z M 5.828125 -23.84375 "/></g></g></g><g fill="#ffffff" fill-opacity="1"><g transform="translate(93.994784, 294.750441)"><g><path d="M 9.84375 0.3125 C 8.101562 0.3125 6.398438 0.0976562 4.734375 -0.328125 C 3.078125 -0.753906 1.757812 -1.289062 0.78125 -1.9375 L 2.796875 -6.296875 C 3.734375 -5.703125 4.863281 -5.21875 6.1875 -4.84375 C 7.507812 -4.46875 8.804688 -4.28125 10.078125 -4.28125 C 12.640625 -4.28125 13.921875 -4.914062 13.921875 -6.1875 C 13.921875 -6.78125 13.570312 -7.207031 12.875 -7.46875 C 12.175781 -7.726562 11.097656 -7.945312 9.640625 -8.125 C 7.929688 -8.382812 6.519531 -8.679688 5.40625 -9.015625 C 4.289062 -9.359375 3.320312 -9.957031 2.5 -10.8125 C 1.6875 -11.664062 1.28125 -12.882812 1.28125 -14.46875 C 1.28125 -15.789062 1.660156 -16.960938 2.421875 -17.984375 C 3.191406 -19.003906 4.304688 -19.800781 5.765625 -20.375 C 7.234375 -20.945312 8.96875 -21.234375 10.96875 -21.234375 C 12.445312 -21.234375 13.914062 -21.070312 15.375 -20.75 C 16.84375 -20.425781 18.054688 -19.976562 19.015625 -19.40625 L 17 -15.09375 C 15.15625 -16.125 13.144531 -16.640625 10.96875 -16.640625 C 9.664062 -16.640625 8.691406 -16.457031 8.046875 -16.09375 C 7.398438 -15.738281 7.078125 -15.273438 7.078125 -14.703125 C 7.078125 -14.054688 7.425781 -13.601562 8.125 -13.34375 C 8.820312 -13.082031 9.9375 -12.832031 11.46875 -12.59375 C 13.1875 -12.3125 14.585938 -12.007812 15.671875 -11.6875 C 16.765625 -11.363281 17.710938 -10.773438 18.515625 -9.921875 C 19.316406 -9.066406 19.71875 -7.875 19.71875 -6.34375 C 19.71875 -5.039062 19.328125 -3.882812 18.546875 -2.875 C 17.773438 -1.863281 16.640625 -1.078125 15.140625 -0.515625 C 13.648438 0.0351562 11.882812 0.3125 9.84375 0.3125 Z M 9.84375 0.3125 "/></g></g></g><g fill="#ffffff" fill-opacity="1"><g transform="translate(115.262212, 294.750441)"><g><path d="M 24.109375 -28.859375 L 24.109375 0 L 18.3125 0 L 18.3125 -2.40625 C 16.8125 -0.59375 14.632812 0.3125 11.78125 0.3125 C 9.8125 0.3125 8.03125 -0.125 6.4375 -1 C 4.84375 -1.882812 3.59375 -3.144531 2.6875 -4.78125 C 1.78125 -6.414062 1.328125 -8.3125 1.328125 -10.46875 C 1.328125 -12.613281 1.78125 -14.503906 2.6875 -16.140625 C 3.59375 -17.773438 4.84375 -19.03125 6.4375 -19.90625 C 8.03125 -20.789062 9.8125 -21.234375 11.78125 -21.234375 C 14.457031 -21.234375 16.546875 -20.390625 18.046875 -18.703125 L 18.046875 -28.859375 Z M 12.828125 -4.671875 C 14.359375 -4.671875 15.628906 -5.191406 16.640625 -6.234375 C 17.648438 -7.285156 18.15625 -8.695312 18.15625 -10.46875 C 18.15625 -12.226562 17.648438 -13.628906 16.640625 -14.671875 C 15.628906 -15.722656 14.359375 -16.25 12.828125 -16.25 C 11.273438 -16.25 9.992188 -15.722656 8.984375 -14.671875 C 7.972656 -13.628906 7.46875 -12.226562 7.46875 -10.46875 C 7.46875 -8.695312 7.972656 -7.285156 8.984375 -6.234375 C 9.992188 -5.191406 11.273438 -4.671875 12.828125 -4.671875 Z M 12.828125 -4.671875 "/></g></g></g><g fill="#ffffff" fill-opacity="1"><g transform="translate(142.789306, 294.750441)"><g><path d="M 12.75 0.3125 C 10.550781 0.3125 8.578125 -0.144531 6.828125 -1.0625 C 5.078125 -1.988281 3.707031 -3.265625 2.71875 -4.890625 C 1.738281 -6.523438 1.25 -8.382812 1.25 -10.46875 C 1.25 -12.539062 1.738281 -14.390625 2.71875 -16.015625 C 3.707031 -17.648438 5.078125 -18.925781 6.828125 -19.84375 C 8.578125 -20.769531 10.550781 -21.234375 12.75 -21.234375 C 14.957031 -21.234375 16.925781 -20.769531 18.65625 -19.84375 C 20.394531 -18.925781 21.757812 -17.648438 22.75 -16.015625 C 23.738281 -14.390625 24.234375 -12.539062 24.234375 -10.46875 C 24.234375 -8.382812 23.738281 -6.523438 22.75 -4.890625 C 21.757812 -3.265625 20.394531 -1.988281 18.65625 -1.0625 C 16.925781 -0.144531 14.957031 0.3125 12.75 0.3125 Z M 12.75 -4.671875 C 14.3125 -4.671875 15.585938 -5.191406 16.578125 -6.234375 C 17.578125 -7.285156 18.078125 -8.695312 18.078125 -10.46875 C 18.078125 -12.226562 17.578125 -13.628906 16.578125 -14.671875 C 15.585938 -15.722656 14.3125 -16.25 12.75 -16.25 C 11.195312 -16.25 9.914062 -15.722656 8.90625 -14.671875 C 7.894531 -13.628906 7.390625 -12.226562 7.390625 -10.46875 C 7.390625 -8.695312 7.894531 -7.285156 8.90625 -6.234375 C 9.914062 -5.191406 11.195312 -4.671875 12.75 -4.671875 Z M 12.75 -4.671875 "/></g></g></g><g fill="#ffffff" fill-opacity="1"><g transform="translate(168.877837, 294.750441)"><g><path d="M 29.59375 -21.234375 C 32.21875 -21.234375 34.300781 -20.460938 35.84375 -18.921875 C 37.382812 -17.378906 38.15625 -15.066406 38.15625 -11.984375 L 38.15625 0 L 32.078125 0 L 32.078125 -11.046875 C 32.078125 -12.703125 31.734375 -13.9375 31.046875 -14.75 C 30.367188 -15.570312 29.394531 -15.984375 28.125 -15.984375 C 26.695312 -15.984375 25.566406 -15.519531 24.734375 -14.59375 C 23.898438 -13.675781 23.484375 -12.3125 23.484375 -10.5 L 23.484375 0 L 17.421875 0 L 17.421875 -11.046875 C 17.421875 -14.335938 16.097656 -15.984375 13.453125 -15.984375 C 12.054688 -15.984375 10.941406 -15.519531 10.109375 -14.59375 C 9.273438 -13.675781 8.859375 -12.3125 8.859375 -10.5 L 8.859375 0 L 2.796875 0 L 2.796875 -20.921875 L 8.59375 -20.921875 L 8.59375 -18.515625 C 9.375 -19.390625 10.328125 -20.0625 11.453125 -20.53125 C 12.578125 -21 13.816406 -21.234375 15.171875 -21.234375 C 16.648438 -21.234375 17.984375 -20.941406 19.171875 -20.359375 C 20.367188 -19.773438 21.328125 -18.925781 22.046875 -17.8125 C 22.898438 -18.894531 23.984375 -19.734375 25.296875 -20.328125 C 26.609375 -20.929688 28.039062 -21.234375 29.59375 -21.234375 Z M 29.59375 -21.234375 "/></g></g></g><g fill="#ffffff" fill-opacity="1"><g transform="translate(210.28504, 294.750441)"><g/></g></g><g fill="#ffffff" fill-opacity="1"><g transform="translate(221.910266, 294.750441)"><g><path d="M 3.234375 -27.21875 L 15.59375 -27.21875 C 18.550781 -27.21875 21.160156 -26.65625 23.421875 -25.53125 C 25.691406 -24.40625 27.457031 -22.816406 28.71875 -20.765625 C 29.976562 -18.710938 30.609375 -16.328125 30.609375 -13.609375 C 30.609375 -10.890625 29.976562 -8.503906 28.71875 -6.453125 C 27.457031 -4.410156 25.691406 -2.820312 23.421875 -1.6875 C 21.160156 -0.5625 18.550781 0 15.59375 0 L 3.234375 0 Z M 15.28125 -5.171875 C 18.007812 -5.171875 20.179688 -5.925781 21.796875 -7.4375 C 23.421875 -8.957031 24.234375 -11.015625 24.234375 -13.609375 C 24.234375 -16.203125 23.421875 -18.253906 21.796875 -19.765625 C 20.179688 -21.285156 18.007812 -22.046875 15.28125 -22.046875 L 9.53125 -22.046875 L 9.53125 -5.171875 Z M 15.28125 -5.171875 "/></g></g></g><g fill="#ffffff" fill-opacity="1"><g transform="translate(254.647247, 294.750441)"><g><path d="M 8.59375 -18.15625 C 9.320312 -19.164062 10.300781 -19.929688 11.53125 -20.453125 C 12.757812 -20.972656 14.179688 -21.234375 15.796875 -21.234375 L 15.796875 -15.640625 C 15.117188 -15.691406 14.660156 -15.71875 14.421875 -15.71875 C 12.691406 -15.71875 11.332031 -15.226562 10.34375 -14.25 C 9.351562 -13.28125 8.859375 -11.820312 8.859375 -9.875 L 8.859375 0 L 2.796875 0 L 2.796875 -20.921875 L 8.59375 -20.921875 Z M 8.59375 -18.15625 "/></g></g></g><g fill="#ffffff" fill-opacity="1"><g transform="translate(272.026676, 294.750441)"><g><path d="M 12.75 0.3125 C 10.550781 0.3125 8.578125 -0.144531 6.828125 -1.0625 C 5.078125 -1.988281 3.707031 -3.265625 2.71875 -4.890625 C 1.738281 -6.523438 1.25 -8.382812 1.25 -10.46875 C 1.25 -12.539062 1.738281 -14.390625 2.71875 -16.015625 C 3.707031 -17.648438 5.078125 -18.925781 6.828125 -19.84375 C 8.578125 -20.769531 10.550781 -21.234375 12.75 -21.234375 C 14.957031 -21.234375 16.925781 -20.769531 18.65625 -19.84375 C 20.394531 -18.925781 21.757812 -17.648438 22.75 -16.015625 C 23.738281 -14.390625 24.234375 -12.539062 24.234375 -10.46875 C 24.234375 -8.382812 23.738281 -6.523438 22.75 -4.890625 C 21.757812 -3.265625 20.394531 -1.988281 18.65625 -1.0625 C 16.925781 -0.144531 14.957031 0.3125 12.75 0.3125 Z M 12.75 -4.671875 C 14.3125 -4.671875 15.585938 -5.191406 16.578125 -6.234375 C 17.578125 -7.285156 18.078125 -8.695312 18.078125 -10.46875 C 18.078125 -12.226562 17.578125 -13.628906 16.578125 -14.671875 C 15.585938 -15.722656 14.3125 -16.25 12.75 -16.25 C 11.195312 -16.25 9.914062 -15.722656 8.90625 -14.671875 C 7.894531 -13.628906 7.390625 -12.226562 7.390625 -10.46875 C 7.390625 -8.695312 7.894531 -7.285156 8.90625 -6.234375 C 9.914062 -5.191406 11.195312 -4.671875 12.75 -4.671875 Z M 12.75 -4.671875 "/></g></g></g><g fill="#ffffff" fill-opacity="1"><g transform="translate(298.115194, 294.750441)"><g><path d="M 15.171875 -21.234375 C 17.109375 -21.234375 18.875 -20.785156 20.46875 -19.890625 C 22.070312 -18.992188 23.328125 -17.734375 24.234375 -16.109375 C 25.140625 -14.492188 25.59375 -12.613281 25.59375 -10.46875 C 25.59375 -8.3125 25.140625 -6.421875 24.234375 -4.796875 C 23.328125 -3.179688 22.070312 -1.925781 20.46875 -1.03125 C 18.875 -0.132812 17.109375 0.3125 15.171875 0.3125 C 12.492188 0.3125 10.390625 -0.53125 8.859375 -2.21875 L 8.859375 7.546875 L 2.796875 7.546875 L 2.796875 -20.921875 L 8.59375 -20.921875 L 8.59375 -18.515625 C 10.09375 -20.328125 12.285156 -21.234375 15.171875 -21.234375 Z M 14.125 -4.671875 C 15.675781 -4.671875 16.945312 -5.191406 17.9375 -6.234375 C 18.9375 -7.285156 19.4375 -8.695312 19.4375 -10.46875 C 19.4375 -12.226562 18.9375 -13.628906 17.9375 -14.671875 C 16.945312 -15.722656 15.675781 -16.25 14.125 -16.25 C 12.5625 -16.25 11.28125 -15.722656 10.28125 -14.671875 C 9.289062 -13.628906 8.796875 -12.226562 8.796875 -10.46875 C 8.796875 -8.695312 9.289062 -7.285156 10.28125 -6.234375 C 11.28125 -5.191406 12.5625 -4.671875 14.125 -4.671875 Z M 14.125 -4.671875 "/></g></g></g><g clip-path="url(#aa131e8768)"><path fill="#ffffff" d="M 184.515625 137.941406 L 200.113281 128.898438 C 195.097656 122.378906 189.566406 116.0625 184.515625 110.054688 Z M 204.894531 135.453125 L 184.550781 147.261719 L 184.550781 165.351562 L 213.460938 148.25 C 211.6875 145.246094 209.707031 142.210938 207.691406 139.207031 C 206.667969 137.941406 205.882812 136.714844 204.894531 135.453125 Z M 217.457031 155.554688 L 184.515625 174.671875 L 184.515625 192.523438 L 222.472656 170.644531 C 221.722656 165.863281 219.980469 160.847656 217.457031 155.554688 Z M 222.746094 179.929688 L 184.550781 202.046875 L 184.550781 217.648438 C 194.621094 216.65625 203.664062 212.117188 210.421875 205.324219 C 217.183594 198.53125 221.484375 189.726562 222.746094 179.929688 Z M 176.222656 217.648438 L 176.222656 202.046875 L 138.023438 179.929688 C 139.015625 189.726562 143.554688 198.53125 150.347656 205.324219 C 157.140625 212.117188 166.183594 216.621094 176.222656 217.648438 Z M 138.296875 170.644531 L 176.253906 192.523438 L 176.253906 174.671875 L 143.316406 155.554688 C 140.789062 160.847656 139.046875 165.863281 138.296875 170.644531 Z M 147.070312 148.25 L 176.222656 165.351562 L 176.222656 147.261719 L 155.636719 135.453125 C 154.886719 136.714844 153.863281 137.976562 153.113281 139.207031 C 150.859375 142.242188 148.84375 145.246094 147.070312 148.25 Z M 160.65625 128.898438 L 176.253906 137.941406 L 176.253906 110.054688 C 171.203125 116.097656 165.671875 122.378906 160.65625 128.898438 Z M 146.320312 134.425781 C 155.605469 120.84375 167.449219 107.769531 177.246094 96.707031 L 180.25 93.433594 L 183.253906 96.707031 C 193.324219 107.769531 204.859375 120.84375 214.417969 134.425781 C 223.976562 148.492188 231.007812 162.828125 231.007812 175.148438 C 231.007812 189.214844 225.238281 201.808594 216.191406 211.09375 C 206.90625 220.140625 194.3125 225.90625 180.25 225.90625 C 166.425781 225.90625 153.589844 220.140625 144.542969 211.09375 C 135.257812 201.808594 129.730469 189.214844 129.730469 175.148438 C 129.730469 162.859375 136.761719 148.523438 146.320312 134.425781 Z M 246.367188 175.148438 C 246.367188 193.515625 238.824219 209.832031 227.011719 221.914062 C 214.964844 233.722656 198.613281 241.269531 180.25 241.269531 C 162.15625 241.269531 145.566406 233.722656 133.757812 221.914062 C 121.707031 209.863281 114.402344 193.515625 114.402344 175.148438 C 114.402344 143.234375 146.832031 107.53125 168.4375 83.910156 C 171.953125 80.152344 174.957031 76.605469 177.246094 74.113281 L 180.25 70.597656 L 183.253906 74.113281 C 185.777344 76.636719 188.816406 80.152344 192.058594 83.910156 C 213.941406 107.53125 246.367188 143.234375 246.367188 175.148438 Z M 221.246094 216.144531 C 231.792969 205.597656 238.074219 191.261719 238.074219 175.183594 C 238.074219 146.546875 206.90625 112.101562 186.050781 89.234375 C 184.039062 87.21875 182.296875 84.964844 180.28125 82.953125 C 178.507812 84.964844 176.527344 87.21875 174.515625 89.234375 C 153.65625 112.101562 122.492188 146.546875 122.492188 175.183594 C 122.492188 191.261719 129.011719 205.597656 139.59375 216.144531 C 149.902344 226.691406 164.480469 232.972656 180.316406 232.972656 C 196.359375 232.972656 210.664062 226.691406 221.246094 216.144531 Z M 221.246094 216.144531 " fill-opacity="1" fill-rule="nonzero"/></g></svg>